<svg xmlns="http://www.w3.org/2000/svg" viewBox="0 0 128 128"><rect width="128" height="128" rx="64" fill="#e5e4e0"/><ellipse cx="64" cy="115" rx="41" ry="24" fill="#fbfaf6"/><path d="M27 49 26 20q2-8 10-1l20 16m45 14 1-29q-2-8-10-1L72 35" fill="#fbfaf6"/><path d="m32 39-1-12 14 10m40 0 12-10-1 13" fill="#d79992" opacity=".75"/><ellipse cx="64" cy="67" rx="44" ry="39" fill="#fbfaf6"/><ellipse cx="64" cy="79" rx="31" ry="24" fill="#fff5e9" opacity=".72"/><ellipse cx="46" cy="63" rx="6" ry="7" fill="#39363a"/><ellipse cx="82" cy="63" rx="6" ry="7" fill="#39363a"/><circle cx="48" cy="61" r="2" fill="white"/><circle cx="84" cy="61" r="2" fill="white"/><path d="M59 76q5-3 10 0l-5 5z" fill="#b98280"/><path d="M64 81v4m0 0q-7 7-12 0m12 0q7 7 12 0" stroke="#795f5b" stroke-width="2" fill="none" stroke-linecap="round"/><path d="m21 77 18 1m-17 7 16-2m51-5 18-1m-17 7 16 2" stroke="#8b8880" stroke-width="1.7" opacity=".65"/><path d="M39 105q25 10 50 0" stroke="#8b8880" stroke-width="6" fill="none"/><circle cx="64" cy="111" r="6" fill="#e9c377"/></svg>